<?xml version="1.0" encoding="UTF-8"?>
<svg id="Layer_1" data-name="Layer 1" xmlns="http://www.w3.org/2000/svg" viewBox="0 0 114.85 94.67">
  <defs>
    <style>
      .cls-1 {
        stroke-width: .49px;
      }

      .cls-1, .cls-2 {
        stroke: #f0f0f0;
      }

      .cls-1, .cls-2, .cls-3 {
        stroke-miterlimit: 10;
      }

      .cls-1, .cls-2, .cls-4 {
        fill: none;
      }

      .cls-2 {
        stroke-width: .29px;
      }

      .cls-5 {
        fill: #ff8080;
      }

      .cls-6 {
        fill: #10141b;
      }

      .cls-7 {
        fill: #faaf40;
      }

      .cls-3 {
        fill: #7f9dff;
      }

      .cls-3, .cls-8, .cls-4 {
        stroke: #000;
        stroke-width: .06px;
      }

      .cls-8 {
        fill: #9b9b9b;
      }

      .cls-9 {
        fill: #f0f0f0;
      }

      .cls-10 {
        fill: #221f1f;
      }

      .cls-11 {
        fill: #826efc;
        stroke: #221f1f;
        stroke-width: .12px;
      }

      .cls-12 {
        font-family: Arial-BoldMT, Arial;
        font-size: 9.41px;
        font-weight: 700;
      }

      .cls-13 {
        letter-spacing: -.07em;
      }

      .cls-14 {
        letter-spacing: -.02em;
      }

      .cls-15 {
        letter-spacing: -.06em;
      }

      .cls-16 {
        fill: #6c6c6c;
        font-family: ArialMT, Arial;
        font-size: 16px;
      }
    </style>
  </defs>
  <rect class="cls-6" x="-2.75" y="-1.48" width="120.07" height="97.98"/>
  <g>
    <g>
      <g>
        <path class="cls-2" d="M45.83,36.74c1.26.03,3.23.25,5.4,1.23,2.3,1.04,3.71,2.44,4.38,3.12,1.72,1.74,2.61,3.45,2.92,4.11,1.64,3.39,1.62,6.63,1.4,8.51-.3,2.62-1.19,4.48-1.47,5.04-.24.48-1.02,1.94-2.48,3.49-1.81,1.93-3.66,2.89-4.28,3.2-.58.29-2.61,1.24-5.47,1.48-3.22.27-5.64-.52-6.27-.74-.7-.24-2.6-.96-4.58-2.59-3.15-2.58-4.37-5.7-4.68-6.54-1.42-3.88-.84-7.25-.54-8.56.77-3.36,2.5-5.62,3.49-6.73.9-1.01,2.64-2.68,5.32-3.83,1.18-.51,2.29-.8,3.22-.97"/>
        <polygon class="cls-9" points="41.73 37.89 41.93 37.04 41.47 36.3 43.48 36.78 41.73 37.89"/>
      </g>
      <g>
        <path class="cls-1" d="M87.19,73.85c-.63-2.61,1.11-4.61,2.1-6.79,1.55-4.76-6.13-5.14-5-9.71.49-3.19,3.82-4.84,5.66-7.27,4.61-8.47-8.21-5.58-7.64-12.52.07-2.6,2.6-4.03,3.94-5.83,2.62-4.19-3.06-7.57-6.55-4.93-1.21.69-2.24,1.92-3.72,1.94-2.2-.08-4.29-2.27-6.53-1.75-4.1,1.31-6.65,6.58-5.92,11.02"/>
        <g>
          <g>
            <path class="cls-11" d="M49.42,45.01c0,.07-.03.13-.04.19,4.63-2.38,7.99,5.16,3.16,7.01,4.28,2.93-.74,9.49-4.7,6.09.05,4.16-6.2,5.09-7.45,1.2-4.16,4.43-8.1,9.21-11.24,14.38,1.6,2.54-2.68,4.68-3.77,1.89-.61-1.44.69-3.11,2.23-2.86,1.92-3.75,5.1-6.99,7.55-10.44-1.58-.9.29-4.72.39-6.28-1.7-1.75-1.02-5.05,1.2-6-3.77-3.16,1.23-9.11,5-5.88.23-5.13,8.34-4.39,7.67.7ZM39.85,57.23c-.83.35-1.88.38-2.75.03-.13,1.53-.1,3.23-1.09,4.48,1.37-1.36,2.62-3.02,3.84-4.51ZM47.3,48.02c-1.28.68-3.08.47-4.17-.49-.04,1.42-.97,2.64-2.15,3.21,1.11.94,1.63,2.63,1.14,4.08,1.3-.79,3.22-.61,4.36.4,0-1.55,1.05-2.9,2.39-3.44-1.15-.81-1.87-2.29-1.56-3.77Z"/>
            <path class="cls-11" d="M42.08,44.31c-1.46,2.88.76,3.29,2.56,6.27,7.07,5.46,24.7,1.93,20.8-9.85l-4.48-3.1c4.42,8.49-.63,13.14-9.37,11.78-1.9,0-6.06-.27-4.81-3.03"/>
            <path class="cls-8" d="M65.03,35.69c-.77.28-4.61-.51-4.45,1.05.29.78-.52,4.98,1.07,4.81.77-.28,4.61.51,4.45-1.05-.29-.78.52-4.98-1.07-4.81Z"/>
          </g>
          <g>
            <g>
              <path class="cls-7" d="M83.74,77.25c-1.17,0-1.86-.23-2.03-.69-.29-.77.76-2.21,3.11-4.29.76-.75,1.67-1.15,2.64-1.15,1.52,0,3.07.98,3.95,2.5.75,1.02.98,1.81.7,2.37-.54,1.07-2.86,1.22-5.05,1.22-.37,0-1.71-.02-1.99-.02-.6,0-1,.02-1.27.06h-.05Z"/>
              <path class="cls-10" d="M87.46,71.23c1.48,0,2.99.96,3.87,2.46.72.97.95,1.73.68,2.25-.52,1.03-2.92,1.16-4.96,1.16-.37,0-.74,0-1.09,0-.32,0-.62,0-.9,0-.61,0-1.01.02-1.26.05h-.07c-1.11,0-1.77-.22-1.93-.62-.27-.72.76-2.12,3.09-4.17.73-.73,1.61-1.11,2.56-1.11M87.46,71.01c-.94,0-1.89.36-2.71,1.18-1.59,1.4-5.72,5.17-1.01,5.17.02,0,.05,0,.07,0,.31-.04.75-.05,1.26-.05.59,0,1.28.02,1.99.02,3.23,0,6.98-.31,4.45-3.75-.9-1.54-2.46-2.55-4.05-2.55h0Z"/>
            </g>
            <text class="cls-12" transform="translate(89.25 79.47) rotate(-180) scale(1 -1)"><tspan x="0" y="0">*</tspan></text>
          </g>
        </g>
        <g>
          <path class="cls-3" d="M67.14,29.69c-.81-.13-3.81-2.65-4.41-1.2-.11.82-2.84,4.13-1.36,4.74.81.13,3.81,2.65,4.42,1.2.11-.82,2.84-4.13,1.36-4.74Z"/>
          <path class="cls-5" d="M67.57,30.6l-3.41,1.48c-.48.38-1.04-3.32-1.24-3.86.87-.81,3.48,1.35,4.23,1.47.38.15.48.48.42.9Z"/>
          <path class="cls-4" d="M67.57,30.6c-.16,1.23-1.71,3.22-1.78,3.83-.61,1.45-3.61-1.07-4.41-1.2-1.48-.61,1.24-3.92,1.36-4.74.04-.11.1-.2.18-.27.87-.81,3.48,1.35,4.23,1.47.38.15.48.48.42.9Z"/>
        </g>
      </g>
    </g>
    <text class="cls-16" transform="translate(20.82 18.4)"><tspan x="0" y="0">1 mM</tspan><tspan class="cls-15" x="40" y="0"> </tspan><tspan class="cls-13" x="43.56" y="0">A</tspan><tspan x="53.05" y="0">T</tspan><tspan class="cls-14" x="62.82" y="0">P</tspan></text>
  </g>
</svg>