<?xml version="1.0" encoding="UTF-8"?>
<svg id="Layer_1" data-name="Layer 1" xmlns="http://www.w3.org/2000/svg" xmlns:xlink="http://www.w3.org/1999/xlink" viewBox="0 0 114.85 94.67">
  <defs>
    <style>
      .cls-1 {
        fill: url(#radial-gradient-3);
      }

      .cls-1, .cls-2, .cls-3, .cls-4, .cls-5, .cls-6, .cls-7, .cls-8, .cls-9, .cls-10, .cls-11, .cls-12, .cls-13, .cls-14, .cls-15, .cls-16, .cls-17, .cls-18, .cls-19, .cls-20, .cls-21, .cls-22, .cls-23, .cls-24, .cls-25, .cls-26, .cls-27, .cls-28, .cls-29, .cls-30, .cls-31, .cls-32, .cls-33, .cls-34, .cls-35, .cls-36, .cls-37, .cls-38, .cls-39, .cls-40, .cls-41, .cls-42, .cls-43, .cls-44, .cls-45, .cls-46, .cls-47, .cls-48, .cls-49, .cls-50, .cls-51, .cls-52, .cls-53, .cls-54, .cls-55, .cls-56, .cls-57, .cls-58, .cls-59, .cls-60, .cls-61, .cls-62, .cls-63, .cls-64, .cls-65, .cls-66, .cls-67, .cls-68, .cls-69, .cls-70, .cls-71, .cls-72, .cls-73, .cls-74, .cls-75, .cls-76, .cls-77, .cls-78, .cls-79, .cls-80, .cls-81, .cls-82, .cls-83, .cls-84, .cls-85, .cls-86, .cls-87, .cls-88, .cls-89, .cls-90, .cls-91, .cls-92, .cls-93, .cls-94, .cls-95, .cls-96, .cls-97, .cls-98, .cls-99, .cls-100, .cls-101, .cls-102, .cls-103, .cls-104, .cls-105, .cls-106, .cls-107, .cls-108, .cls-109, .cls-110, .cls-111, .cls-112, .cls-113, .cls-114, .cls-115, .cls-116, .cls-117, .cls-118, .cls-119, .cls-120, .cls-121, .cls-122, .cls-123, .cls-124, .cls-125, .cls-126, .cls-127 {
        stroke-miterlimit: 10;
      }

      .cls-1, .cls-2, .cls-3, .cls-4, .cls-5, .cls-6, .cls-7, .cls-8, .cls-11, .cls-12, .cls-13, .cls-14, .cls-15, .cls-16, .cls-17, .cls-18, .cls-19, .cls-20, .cls-21, .cls-22, .cls-23, .cls-24, .cls-25, .cls-26, .cls-27, .cls-28, .cls-29, .cls-30, .cls-31, .cls-32, .cls-33, .cls-34, .cls-35, .cls-36, .cls-128, .cls-129, .cls-37, .cls-38, .cls-39, .cls-40, .cls-41, .cls-42, .cls-43, .cls-44, .cls-45, .cls-46, .cls-47, .cls-48, .cls-49, .cls-50, .cls-51, .cls-52, .cls-53, .cls-54, .cls-55, .cls-56, .cls-57, .cls-58, .cls-59, .cls-60, .cls-61, .cls-62, .cls-63, .cls-64, .cls-65, .cls-66, .cls-67, .cls-68, .cls-69, .cls-70, .cls-71, .cls-72, .cls-73, .cls-74, .cls-75, .cls-76, .cls-77, .cls-78, .cls-79, .cls-80, .cls-81, .cls-82, .cls-83, .cls-84, .cls-85, .cls-86, .cls-87, .cls-88, .cls-89, .cls-90, .cls-91, .cls-92, .cls-93, .cls-94, .cls-95, .cls-96, .cls-97, .cls-98, .cls-99, .cls-100, .cls-101, .cls-102, .cls-103, .cls-104, .cls-105, .cls-106, .cls-107, .cls-108, .cls-109, .cls-110, .cls-111, .cls-112, .cls-113, .cls-114, .cls-115, .cls-116, .cls-117, .cls-118, .cls-119, .cls-120, .cls-121, .cls-122, .cls-123, .cls-124, .cls-125, .cls-126, .cls-127 {
        stroke: #000;
      }

      .cls-1, .cls-2, .cls-3, .cls-4, .cls-5, .cls-6, .cls-7, .cls-8, .cls-11, .cls-12, .cls-13, .cls-14, .cls-15, .cls-16, .cls-17, .cls-18, .cls-19, .cls-20, .cls-21, .cls-22, .cls-23, .cls-24, .cls-25, .cls-26, .cls-27, .cls-28, .cls-29, .cls-30, .cls-31, .cls-32, .cls-33, .cls-34, .cls-35, .cls-37, .cls-38, .cls-39, .cls-40, .cls-41, .cls-42, .cls-43, .cls-44, .cls-45, .cls-46, .cls-47, .cls-48, .cls-49, .cls-50, .cls-51, .cls-52, .cls-53, .cls-54, .cls-55, .cls-56, .cls-57, .cls-58, .cls-59, .cls-60, .cls-61, .cls-62, .cls-63, .cls-64, .cls-65, .cls-66, .cls-67, .cls-68, .cls-69, .cls-70, .cls-71, .cls-72, .cls-73, .cls-74, .cls-75, .cls-76, .cls-77, .cls-78, .cls-79, .cls-80, .cls-81, .cls-82, .cls-83, .cls-84, .cls-85, .cls-86, .cls-87, .cls-88, .cls-89, .cls-90, .cls-91, .cls-92, .cls-93, .cls-94, .cls-95, .cls-96, .cls-97, .cls-98, .cls-99, .cls-100, .cls-101, .cls-102, .cls-103, .cls-104, .cls-105, .cls-106, .cls-107, .cls-108, .cls-109, .cls-110, .cls-111, .cls-112, .cls-113, .cls-114, .cls-115, .cls-116, .cls-117, .cls-118, .cls-119, .cls-120, .cls-121, .cls-122, .cls-123, .cls-124, .cls-125, .cls-126, .cls-127 {
        stroke-width: .12px;
      }

      .cls-2 {
        fill: url(#radial-gradient-2);
      }

      .cls-3 {
        fill: url(#radial-gradient-6);
      }

      .cls-4 {
        fill: url(#radial-gradient-7);
      }

      .cls-5 {
        fill: url(#radial-gradient-5);
      }

      .cls-6 {
        fill: url(#radial-gradient-8);
      }

      .cls-7 {
        fill: url(#radial-gradient-4);
      }

      .cls-8 {
        fill: url(#radial-gradient-9);
      }

      .cls-130, .cls-131 {
        fill: #6c6c6c;
      }

      .cls-132 {
        fill: url(#linear-gradient-3);
      }

      .cls-133 {
        fill: url(#linear-gradient-2);
      }

      .cls-9 {
        stroke-width: .49px;
      }

      .cls-9, .cls-10 {
        stroke: #f0f0f0;
      }

      .cls-9, .cls-10, .cls-129 {
        fill: none;
      }

      .cls-10 {
        stroke-width: .29px;
      }

      .cls-134 {
        fill: #ff8080;
      }

      .cls-135 {
        fill: url(#linear-gradient);
      }

      .cls-11 {
        fill: url(#radial-gradient-101);
      }

      .cls-12 {
        fill: url(#radial-gradient-106);
      }

      .cls-13 {
        fill: url(#radial-gradient-105);
      }

      .cls-14 {
        fill: url(#radial-gradient-109);
      }

      .cls-15 {
        fill: url(#radial-gradient-100);
      }

      .cls-16 {
        fill: url(#radial-gradient-103);
      }

      .cls-17 {
        fill: url(#radial-gradient-104);
      }

      .cls-18 {
        fill: url(#radial-gradient-102);
      }

      .cls-19 {
        fill: url(#radial-gradient-108);
      }

      .cls-20 {
        fill: url(#radial-gradient-107);
      }

      .cls-21 {
        fill: url(#radial-gradient-123);
      }

      .cls-22 {
        fill: url(#radial-gradient-124);
      }

      .cls-23 {
        fill: url(#radial-gradient-121);
      }

      .cls-24 {
        fill: url(#radial-gradient-122);
      }

      .cls-25 {
        fill: url(#radial-gradient-120);
      }

      .cls-26 {
        fill: url(#radial-gradient-111);
      }

      .cls-27 {
        fill: url(#radial-gradient-112);
      }

      .cls-28 {
        fill: url(#radial-gradient-110);
      }

      .cls-29 {
        fill: url(#radial-gradient-113);
      }

      .cls-30 {
        fill: url(#radial-gradient-118);
      }

      .cls-31 {
        fill: url(#radial-gradient-117);
      }

      .cls-32 {
        fill: url(#radial-gradient-116);
      }

      .cls-33 {
        fill: url(#radial-gradient-114);
      }

      .cls-34 {
        fill: url(#radial-gradient-119);
      }

      .cls-35 {
        fill: url(#radial-gradient-115);
      }

      .cls-136 {
        fill: #10141b;
      }

      .cls-137 {
        fill: #faaf40;
      }

      .cls-36 {
        fill: #7f9dff;
      }

      .cls-36, .cls-128, .cls-129 {
        stroke-width: .06px;
      }

      .cls-128 {
        fill: #9b9b9b;
      }

      .cls-138 {
        fill: #f0f0f0;
      }

      .cls-139 {
        fill: #221f1f;
      }

      .cls-140 {
        fill: #826efc;
        stroke: #221f1f;
        stroke-width: .12px;
      }

      .cls-141 {
        font-family: Arial-BoldMT, Arial;
        font-size: 9.41px;
        font-weight: 700;
      }

      .cls-142 {
        letter-spacing: -.07em;
      }

      .cls-143 {
        letter-spacing: -.02em;
      }

      .cls-144 {
        letter-spacing: -.06em;
      }

      .cls-131 {
        font-family: ArialMT, Arial;
        font-size: 16px;
      }

      .cls-37 {
        fill: url(#radial-gradient-90);
      }

      .cls-38 {
        fill: url(#radial-gradient-99);
      }

      .cls-39 {
        fill: url(#radial-gradient-97);
      }

      .cls-40 {
        fill: url(#radial-gradient-93);
      }

      .cls-41 {
        fill: url(#radial-gradient-95);
      }

      .cls-42 {
        fill: url(#radial-gradient-98);
      }

      .cls-43 {
        fill: url(#radial-gradient-92);
      }

      .cls-44 {
        fill: url(#radial-gradient-94);
      }

      .cls-45 {
        fill: url(#radial-gradient-96);
      }

      .cls-46 {
        fill: url(#radial-gradient-91);
      }

      .cls-47 {
        fill: url(#radial-gradient-71);
      }

      .cls-48 {
        fill: url(#radial-gradient-76);
      }

      .cls-49 {
        fill: url(#radial-gradient-74);
      }

      .cls-50 {
        fill: url(#radial-gradient-73);
      }

      .cls-51 {
        fill: url(#radial-gradient-32);
      }

      .cls-52 {
        fill: url(#radial-gradient-59);
      }

      .cls-53 {
        fill: url(#radial-gradient-35);
      }

      .cls-54 {
        fill: url(#radial-gradient-37);
      }

      .cls-55 {
        fill: url(#radial-gradient-36);
      }

      .cls-56 {
        fill: url(#radial-gradient-22);
      }

      .cls-57 {
        fill: url(#radial-gradient-33);
      }

      .cls-58 {
        fill: url(#radial-gradient-39);
      }

      .cls-59 {
        fill: url(#radial-gradient-38);
      }

      .cls-60 {
        fill: url(#radial-gradient-30);
      }

      .cls-61 {
        fill: url(#radial-gradient-31);
      }

      .cls-62 {
        fill: url(#radial-gradient-27);
      }

      .cls-63 {
        fill: url(#radial-gradient-21);
      }

      .cls-64 {
        fill: url(#radial-gradient-25);
      }

      .cls-65 {
        fill: url(#radial-gradient-24);
      }

      .cls-66 {
        fill: url(#radial-gradient-20);
      }

      .cls-67 {
        fill: url(#radial-gradient-23);
      }

      .cls-68 {
        fill: url(#radial-gradient-26);
      }

      .cls-69 {
        fill: url(#radial-gradient-29);
      }

      .cls-70 {
        fill: url(#radial-gradient-28);
      }

      .cls-71 {
        fill: url(#radial-gradient-34);
      }

      .cls-72 {
        fill: url(#radial-gradient-58);
      }

      .cls-73 {
        fill: url(#radial-gradient-51);
      }

      .cls-74 {
        fill: url(#radial-gradient-55);
      }

      .cls-75 {
        fill: url(#radial-gradient-50);
      }

      .cls-76 {
        fill: url(#radial-gradient-56);
      }

      .cls-77 {
        fill: url(#radial-gradient-53);
      }

      .cls-78 {
        fill: url(#radial-gradient-54);
      }

      .cls-79 {
        fill: url(#radial-gradient-52);
      }

      .cls-80 {
        fill: url(#radial-gradient-42);
      }

      .cls-81 {
        fill: url(#radial-gradient-46);
      }

      .cls-82 {
        fill: url(#radial-gradient-45);
      }

      .cls-83 {
        fill: url(#radial-gradient-49);
      }

      .cls-84 {
        fill: url(#radial-gradient-57);
      }

      .cls-85 {
        fill: url(#radial-gradient-41);
      }

      .cls-86 {
        fill: url(#radial-gradient-40);
      }

      .cls-87 {
        fill: url(#radial-gradient-44);
      }

      .cls-88 {
        fill: url(#radial-gradient-43);
      }

      .cls-89 {
        fill: url(#radial-gradient-79);
      }

      .cls-90 {
        fill: url(#radial-gradient-70);
      }

      .cls-91 {
        fill: url(#radial-gradient-72);
      }

      .cls-92 {
        fill: url(#radial-gradient-78);
      }

      .cls-93 {
        fill: url(#radial-gradient-75);
      }

      .cls-94 {
        fill: url(#radial-gradient-77);
      }

      .cls-95 {
        fill: url(#radial-gradient-68);
      }

      .cls-96 {
        fill: url(#radial-gradient-69);
      }

      .cls-97 {
        fill: url(#radial-gradient-60);
      }

      .cls-98 {
        fill: url(#radial-gradient-66);
      }

      .cls-99 {
        fill: url(#radial-gradient-61);
      }

      .cls-100 {
        fill: url(#radial-gradient-62);
      }

      .cls-101 {
        fill: url(#radial-gradient-64);
      }

      .cls-102 {
        fill: url(#radial-gradient-63);
      }

      .cls-103 {
        fill: url(#radial-gradient-67);
      }

      .cls-104 {
        fill: url(#radial-gradient-65);
      }

      .cls-105 {
        fill: url(#radial-gradient-89);
      }

      .cls-106 {
        fill: url(#radial-gradient-84);
      }

      .cls-107 {
        fill: url(#radial-gradient-86);
      }

      .cls-108 {
        fill: url(#radial-gradient-88);
      }

      .cls-109 {
        fill: url(#radial-gradient-87);
      }

      .cls-110 {
        fill: url(#radial-gradient-83);
      }

      .cls-111 {
        fill: url(#radial-gradient-80);
      }

      .cls-112 {
        fill: url(#radial-gradient-85);
      }

      .cls-113 {
        fill: url(#radial-gradient-82);
      }

      .cls-114 {
        fill: url(#radial-gradient-81);
      }

      .cls-115 {
        fill: url(#radial-gradient-18);
      }

      .cls-116 {
        fill: url(#radial-gradient-19);
      }

      .cls-117 {
        fill: url(#radial-gradient-11);
      }

      .cls-118 {
        fill: url(#radial-gradient-15);
      }

      .cls-119 {
        fill: url(#radial-gradient-10);
      }

      .cls-120 {
        fill: url(#radial-gradient-17);
      }

      .cls-121 {
        fill: url(#radial-gradient-12);
      }

      .cls-122 {
        fill: url(#radial-gradient-13);
      }

      .cls-123 {
        fill: url(#radial-gradient-14);
      }

      .cls-124 {
        fill: url(#radial-gradient-48);
      }

      .cls-125 {
        fill: url(#radial-gradient-47);
      }

      .cls-126 {
        fill: url(#radial-gradient-16);
      }

      .cls-127 {
        fill: url(#radial-gradient);
      }
    </style>
    <radialGradient id="radial-gradient" cx="30.52" cy="77.99" fx="30.52" fy="77.99" r="2.21" gradientTransform="translate(-1.73)" gradientUnits="userSpaceOnUse">
      <stop offset="0" stop-color="#dbdbff"/>
      <stop offset="1" stop-color="#8080a8"/>
    </radialGradient>
    <radialGradient id="radial-gradient-2" cx="26.1" cy="77.91" fx="26.1" fy="77.91" r="2.21" gradientTransform="translate(-1.73)" gradientUnits="userSpaceOnUse">
      <stop offset="0" stop-color="#fff"/>
      <stop offset="1" stop-color="#b7b9cb"/>
    </radialGradient>
    <radialGradient id="radial-gradient-3" cx="21.67" fx="21.67" r="2.21" xlink:href="#radial-gradient"/>
    <radialGradient id="radial-gradient-4" cx="17.25" fx="17.25" r="2.21" xlink:href="#radial-gradient-2"/>
    <radialGradient id="radial-gradient-5" cx="12.82" fx="12.82" r="2.21" xlink:href="#radial-gradient"/>
    <radialGradient id="radial-gradient-6" cx="8.4" fx="8.4" r="2.21" xlink:href="#radial-gradient-2"/>
    <radialGradient id="radial-gradient-7" cx="28.46" cy="80.64" fx="28.46" fy="80.64" r="2.21" xlink:href="#radial-gradient"/>
    <radialGradient id="radial-gradient-8" cx="24.03" cy="80.57" fx="24.03" fy="80.57" r="2.21" xlink:href="#radial-gradient-2"/>
    <radialGradient id="radial-gradient-9" cx="19.61" cy="80.64" fx="19.61" fy="80.64" r="2.21" xlink:href="#radial-gradient"/>
    <radialGradient id="radial-gradient-10" cx="15.18" cy="80.57" fx="15.18" fy="80.57" r="2.21" xlink:href="#radial-gradient-2"/>
    <radialGradient id="radial-gradient-11" cx="10.76" cy="80.64" fx="10.76" fy="80.64" r="2.21" xlink:href="#radial-gradient"/>
    <radialGradient id="radial-gradient-12" cx="6.33" cy="80.57" fx="6.33" fy="80.57" r="2.21" xlink:href="#radial-gradient-2"/>
    <radialGradient id="radial-gradient-13" cx="26.61" cy="84.18" fx="26.61" fy="84.18" r="2.21" xlink:href="#radial-gradient"/>
    <radialGradient id="radial-gradient-14" cx="22.19" cy="84.11" fx="22.19" fy="84.11" r="2.21" xlink:href="#radial-gradient-2"/>
    <radialGradient id="radial-gradient-15" cx="17.76" cy="84.18" fx="17.76" fy="84.18" r="2.21" xlink:href="#radial-gradient"/>
    <radialGradient id="radial-gradient-16" cx="13.34" cy="84.11" fx="13.34" fy="84.11" r="2.21" xlink:href="#radial-gradient-2"/>
    <radialGradient id="radial-gradient-17" cx="8.91" cy="84.18" fx="8.91" fy="84.18" r="2.21" xlink:href="#radial-gradient"/>
    <radialGradient id="radial-gradient-18" cx="4.49" cy="84.11" fx="4.49" fy="84.11" r="2.21" xlink:href="#radial-gradient-2"/>
    <radialGradient id="radial-gradient-19" cx="57.07" fx="57.07" xlink:href="#radial-gradient"/>
    <radialGradient id="radial-gradient-20" cx="52.64" fx="52.64" r="2.21" xlink:href="#radial-gradient-2"/>
    <radialGradient id="radial-gradient-21" cx="48.22" fx="48.22" r="2.21" xlink:href="#radial-gradient"/>
    <radialGradient id="radial-gradient-22" cx="43.79" fx="43.79" r="2.21" xlink:href="#radial-gradient-2"/>
    <radialGradient id="radial-gradient-23" cx="39.37" fx="39.37" r="2.21" xlink:href="#radial-gradient"/>
    <radialGradient id="radial-gradient-24" cx="34.95" fx="34.95" r="2.21" xlink:href="#radial-gradient-2"/>
    <radialGradient id="radial-gradient-25" cx="55" cy="80.64" fx="55" fy="80.64" r="2.21" xlink:href="#radial-gradient"/>
    <radialGradient id="radial-gradient-26" cx="50.58" cy="80.57" fx="50.58" fy="80.57" r="2.21" xlink:href="#radial-gradient-2"/>
    <radialGradient id="radial-gradient-27" cx="46.15" cy="80.64" fx="46.15" fy="80.64" r="2.21" xlink:href="#radial-gradient"/>
    <radialGradient id="radial-gradient-28" cx="41.73" cy="80.57" fx="41.73" fy="80.57" r="2.21" xlink:href="#radial-gradient-2"/>
    <radialGradient id="radial-gradient-29" cx="37.3" cy="80.64" fx="37.3" fy="80.64" r="2.21" xlink:href="#radial-gradient"/>
    <radialGradient id="radial-gradient-30" cx="32.88" cy="80.57" fx="32.88" fy="80.57" r="2.21" xlink:href="#radial-gradient-2"/>
    <radialGradient id="radial-gradient-31" cx="53.16" cy="84.18" fx="53.16" fy="84.18" r="2.21" xlink:href="#radial-gradient"/>
    <radialGradient id="radial-gradient-32" cx="48.74" cy="84.11" fx="48.74" fy="84.11" r="2.21" xlink:href="#radial-gradient-2"/>
    <radialGradient id="radial-gradient-33" cx="44.31" cy="84.18" fx="44.31" fy="84.18" r="2.21" xlink:href="#radial-gradient"/>
    <radialGradient id="radial-gradient-34" cx="39.89" cy="84.11" fx="39.89" fy="84.11" r="2.21" xlink:href="#radial-gradient-2"/>
    <radialGradient id="radial-gradient-35" cx="35.46" cy="84.18" fx="35.46" fy="84.18" r="2.21" xlink:href="#radial-gradient"/>
    <radialGradient id="radial-gradient-36" cx="31.04" cy="84.11" fx="31.04" fy="84.11" r="2.21" xlink:href="#radial-gradient-2"/>
    <radialGradient id="radial-gradient-37" cx="27.79" cy="91.73" fx="27.79" fy="91.73" r="2.21" xlink:href="#radial-gradient"/>
    <radialGradient id="radial-gradient-38" cx="23.37" cy="91.66" fx="23.37" fy="91.66" r="2.21" xlink:href="#radial-gradient-2"/>
    <radialGradient id="radial-gradient-39" cx="18.94" cy="91.73" fx="18.94" fy="91.73" r="2.21" xlink:href="#radial-gradient"/>
    <radialGradient id="radial-gradient-40" cx="14.52" cy="91.66" fx="14.52" fy="91.66" r="2.21" xlink:href="#radial-gradient-2"/>
    <radialGradient id="radial-gradient-41" cx="10.09" cy="91.73" fx="10.09" fy="91.73" r="2.21" xlink:href="#radial-gradient"/>
    <radialGradient id="radial-gradient-42" cx="5.67" cy="91.66" fx="5.67" fy="91.66" r="2.21" xlink:href="#radial-gradient-2"/>
    <radialGradient id="radial-gradient-43" cx="29.27" cy="87.9" fx="29.27" fy="87.9" r="2.21" xlink:href="#radial-gradient"/>
    <radialGradient id="radial-gradient-44" cx="24.84" cy="87.83" fx="24.84" fy="87.83" r="2.21" xlink:href="#radial-gradient-2"/>
    <radialGradient id="radial-gradient-45" cx="20.42" cy="87.9" fx="20.42" fy="87.9" r="2.21" xlink:href="#radial-gradient"/>
    <radialGradient id="radial-gradient-46" cx="15.99" cy="87.83" fx="15.99" fy="87.83" r="2.21" xlink:href="#radial-gradient-2"/>
    <radialGradient id="radial-gradient-47" cx="11.57" cy="87.9" fx="11.57" fy="87.9" r="2.21" xlink:href="#radial-gradient"/>
    <radialGradient id="radial-gradient-48" cx="7.15" cy="87.83" fx="7.15" fy="87.83" r="2.21" xlink:href="#radial-gradient-2"/>
    <radialGradient id="radial-gradient-49" cx="54.34" cy="91.73" fx="54.34" fy="91.73" r="2.21" xlink:href="#radial-gradient"/>
    <radialGradient id="radial-gradient-50" cx="49.91" cy="91.66" fx="49.91" fy="91.66" r="2.21" xlink:href="#radial-gradient-2"/>
    <radialGradient id="radial-gradient-51" cx="45.49" cy="91.73" fx="45.49" fy="91.73" r="2.21" xlink:href="#radial-gradient"/>
    <radialGradient id="radial-gradient-52" cx="41.07" cy="91.66" fx="41.07" fy="91.66" r="2.21" xlink:href="#radial-gradient-2"/>
    <radialGradient id="radial-gradient-53" cx="36.64" cy="91.73" fx="36.64" fy="91.73" r="2.21" xlink:href="#radial-gradient"/>
    <radialGradient id="radial-gradient-54" cx="32.22" cy="91.66" fx="32.22" fy="91.66" r="2.21" xlink:href="#radial-gradient-2"/>
    <radialGradient id="radial-gradient-55" cx="55.81" cy="87.9" fx="55.81" fy="87.9" r="2.21" xlink:href="#radial-gradient"/>
    <radialGradient id="radial-gradient-56" cx="51.39" cy="87.83" fx="51.39" fy="87.83" r="2.21" xlink:href="#radial-gradient-2"/>
    <radialGradient id="radial-gradient-57" cx="46.97" cy="87.9" fx="46.97" fy="87.9" r="2.21" xlink:href="#radial-gradient"/>
    <radialGradient id="radial-gradient-58" cx="42.54" cy="87.83" fx="42.54" fy="87.83" r="2.21" xlink:href="#radial-gradient-2"/>
    <radialGradient id="radial-gradient-59" cx="38.12" cy="87.9" fx="38.12" fy="87.9" r="2.21" xlink:href="#radial-gradient"/>
    <radialGradient id="radial-gradient-60" cx="33.69" cy="87.83" fx="33.69" fy="87.83" r="2.21" xlink:href="#radial-gradient-2"/>
    <radialGradient id="radial-gradient-61" cx="83.67" fx="83.67" r="2.21" xlink:href="#radial-gradient"/>
    <radialGradient id="radial-gradient-62" cx="79.24" fx="79.24" r="2.21" xlink:href="#radial-gradient-2"/>
    <radialGradient id="radial-gradient-63" cx="74.82" fx="74.82" r="2.21" xlink:href="#radial-gradient"/>
    <radialGradient id="radial-gradient-64" cx="70.39" fx="70.39" r="2.21" xlink:href="#radial-gradient-2"/>
    <radialGradient id="radial-gradient-65" cx="65.97" fx="65.97" r="2.21" xlink:href="#radial-gradient"/>
    <radialGradient id="radial-gradient-66" cx="61.54" fx="61.54" r="2.21" xlink:href="#radial-gradient-2"/>
    <radialGradient id="radial-gradient-67" cx="81.6" cy="80.64" fx="81.6" fy="80.64" r="2.21" xlink:href="#radial-gradient"/>
    <radialGradient id="radial-gradient-68" cx="77.18" cy="80.57" fx="77.18" fy="80.57" r="2.21" xlink:href="#radial-gradient-2"/>
    <radialGradient id="radial-gradient-69" cx="72.75" cy="80.64" fx="72.75" fy="80.64" r="2.21" xlink:href="#radial-gradient"/>
    <radialGradient id="radial-gradient-70" cx="68.33" cy="80.57" fx="68.33" fy="80.57" r="2.21" xlink:href="#radial-gradient-2"/>
    <radialGradient id="radial-gradient-71" cx="63.9" cy="80.64" fx="63.9" fy="80.64" r="2.21" xlink:href="#radial-gradient"/>
    <radialGradient id="radial-gradient-72" cx="59.48" cy="80.57" fx="59.48" fy="80.57" r="2.21" xlink:href="#radial-gradient-2"/>
    <radialGradient id="radial-gradient-73" cx="79.76" cy="84.18" fx="79.76" fy="84.18" r="2.21" xlink:href="#radial-gradient"/>
    <radialGradient id="radial-gradient-74" cx="75.33" cy="84.11" fx="75.33" fy="84.11" r="2.21" xlink:href="#radial-gradient-2"/>
    <radialGradient id="radial-gradient-75" cx="70.91" cy="84.18" fx="70.91" fy="84.18" r="2.21" xlink:href="#radial-gradient"/>
    <radialGradient id="radial-gradient-76" cx="66.48" cy="84.11" fx="66.48" fy="84.11" r="2.21" xlink:href="#radial-gradient-2"/>
    <radialGradient id="radial-gradient-77" cx="62.06" cy="84.18" fx="62.06" fy="84.18" r="2.21" xlink:href="#radial-gradient"/>
    <radialGradient id="radial-gradient-78" cx="57.63" cy="84.11" fx="57.63" fy="84.11" r="2.21" xlink:href="#radial-gradient-2"/>
    <radialGradient id="radial-gradient-79" cx="110.21" fx="110.21" r="2.21" xlink:href="#radial-gradient"/>
    <radialGradient id="radial-gradient-80" cx="105.79" fx="105.79" r="2.21" xlink:href="#radial-gradient-2"/>
    <radialGradient id="radial-gradient-81" cx="101.36" fx="101.36" r="2.21" xlink:href="#radial-gradient"/>
    <radialGradient id="radial-gradient-82" cx="96.94" fx="96.94" r="2.21" xlink:href="#radial-gradient-2"/>
    <radialGradient id="radial-gradient-83" cx="92.51" fx="92.51" r="2.21" xlink:href="#radial-gradient"/>
    <radialGradient id="radial-gradient-84" cx="88.09" fx="88.09" r="2.21" xlink:href="#radial-gradient-2"/>
    <radialGradient id="radial-gradient-85" cx="112.57" cy="80.57" fx="112.57" fy="80.57" r="2.21" xlink:href="#radial-gradient-2"/>
    <radialGradient id="radial-gradient-86" cx="108.15" cy="80.64" fx="108.15" fy="80.64" r="2.21" xlink:href="#radial-gradient"/>
    <radialGradient id="radial-gradient-87" cx="103.72" cy="80.57" fx="103.72" fy="80.57" r="2.21" xlink:href="#radial-gradient-2"/>
    <radialGradient id="radial-gradient-88" cx="99.3" cy="80.64" fx="99.3" fy="80.64" r="2.21" xlink:href="#radial-gradient"/>
    <radialGradient id="radial-gradient-89" cx="94.87" cy="80.57" fx="94.87" fy="80.57" r="2.21" xlink:href="#radial-gradient-2"/>
    <radialGradient id="radial-gradient-90" cx="90.45" cy="80.64" fx="90.45" fy="80.64" r="2.21" xlink:href="#radial-gradient"/>
    <radialGradient id="radial-gradient-91" cx="86.02" cy="80.57" fx="86.02" fy="80.57" r="2.21" xlink:href="#radial-gradient-2"/>
    <radialGradient id="radial-gradient-92" cx="110.73" cy="84.11" fx="110.73" fy="84.11" r="2.21" xlink:href="#radial-gradient-2"/>
    <radialGradient id="radial-gradient-93" cx="106.3" cy="84.18" fx="106.3" fy="84.18" r="2.21" xlink:href="#radial-gradient"/>
    <radialGradient id="radial-gradient-94" cx="101.88" cy="84.11" fx="101.88" fy="84.11" r="2.21" xlink:href="#radial-gradient-2"/>
    <radialGradient id="radial-gradient-95" cx="97.46" cy="84.18" fx="97.46" fy="84.18" r="2.21" xlink:href="#radial-gradient"/>
    <radialGradient id="radial-gradient-96" cx="93.03" cy="84.11" fx="93.03" fy="84.11" r="2.21" xlink:href="#radial-gradient-2"/>
    <radialGradient id="radial-gradient-97" cx="88.61" cy="84.18" fx="88.61" fy="84.18" r="2.21" xlink:href="#radial-gradient"/>
    <radialGradient id="radial-gradient-98" cx="84.18" cy="84.11" fx="84.18" fy="84.11" r="2.21" xlink:href="#radial-gradient-2"/>
    <radialGradient id="radial-gradient-99" cx="80.94" cy="91.73" fx="80.94" fy="91.73" r="2.21" xlink:href="#radial-gradient"/>
    <radialGradient id="radial-gradient-100" cx="76.51" cy="91.66" fx="76.51" fy="91.66" r="2.21" xlink:href="#radial-gradient-2"/>
    <radialGradient id="radial-gradient-101" cx="72.09" cy="91.73" fx="72.09" fy="91.73" r="2.21" xlink:href="#radial-gradient"/>
    <radialGradient id="radial-gradient-102" cx="67.66" cy="91.66" fx="67.66" fy="91.66" r="2.21" xlink:href="#radial-gradient-2"/>
    <radialGradient id="radial-gradient-103" cx="63.24" cy="91.73" fx="63.24" fy="91.73" r="2.21" xlink:href="#radial-gradient"/>
    <radialGradient id="radial-gradient-104" cx="58.81" cy="91.66" fx="58.81" fy="91.66" r="2.21" xlink:href="#radial-gradient-2"/>
    <radialGradient id="radial-gradient-105" cx="82.41" cy="87.9" fx="82.41" fy="87.9" r="2.21" xlink:href="#radial-gradient"/>
    <radialGradient id="radial-gradient-106" cx="77.99" cy="87.83" fx="77.99" fy="87.83" r="2.21" xlink:href="#radial-gradient-2"/>
    <radialGradient id="radial-gradient-107" cx="73.56" cy="87.9" fx="73.56" fy="87.9" r="2.21" xlink:href="#radial-gradient"/>
    <radialGradient id="radial-gradient-108" cx="69.14" cy="87.83" fx="69.14" fy="87.83" r="2.21" xlink:href="#radial-gradient-2"/>
    <radialGradient id="radial-gradient-109" cx="64.71" cy="87.9" fx="64.71" fy="87.9" r="2.21" xlink:href="#radial-gradient"/>
    <radialGradient id="radial-gradient-110" cx="60.29" cy="87.83" fx="60.29" fy="87.83" r="2.21" xlink:href="#radial-gradient-2"/>
    <radialGradient id="radial-gradient-111" cx="111.91" cy="91.66" fx="111.91" fy="91.66" r="2.21" xlink:href="#radial-gradient-2"/>
    <radialGradient id="radial-gradient-112" cx="107.48" cy="91.73" fx="107.48" fy="91.73" r="2.21" xlink:href="#radial-gradient"/>
    <radialGradient id="radial-gradient-113" cx="103.06" cy="91.66" fx="103.06" fy="91.66" r="2.21" xlink:href="#radial-gradient-2"/>
    <radialGradient id="radial-gradient-114" cx="98.63" cy="91.73" fx="98.63" fy="91.73" r="2.21" xlink:href="#radial-gradient"/>
    <radialGradient id="radial-gradient-115" cx="94.21" cy="91.66" fx="94.21" fy="91.66" r="2.21" xlink:href="#radial-gradient-2"/>
    <radialGradient id="radial-gradient-116" cx="89.79" cy="91.73" fx="89.79" fy="91.73" r="2.21" xlink:href="#radial-gradient"/>
    <radialGradient id="radial-gradient-117" cx="85.36" cy="91.66" fx="85.36" fy="91.66" r="2.21" xlink:href="#radial-gradient-2"/>
    <radialGradient id="radial-gradient-118" cx="113.38" cy="87.83" fx="113.38" fy="87.83" r="2.21" xlink:href="#radial-gradient-2"/>
    <radialGradient id="radial-gradient-119" cx="108.96" cy="87.9" fx="108.96" fy="87.9" r="2.21" xlink:href="#radial-gradient"/>
    <radialGradient id="radial-gradient-120" cx="104.53" cy="87.83" fx="104.53" fy="87.83" r="2.21" xlink:href="#radial-gradient-2"/>
    <radialGradient id="radial-gradient-121" cx="100.11" cy="87.9" fx="100.11" fy="87.9" r="2.21" xlink:href="#radial-gradient"/>
    <radialGradient id="radial-gradient-122" cx="95.69" cy="87.83" fx="95.69" fy="87.83" r="2.21" xlink:href="#radial-gradient-2"/>
    <radialGradient id="radial-gradient-123" cx="91.26" cy="87.9" fx="91.26" fy="87.9" r="2.21" xlink:href="#radial-gradient"/>
    <radialGradient id="radial-gradient-124" cx="86.84" cy="87.83" fx="86.84" fy="87.83" r="2.21" xlink:href="#radial-gradient-2"/>
    <linearGradient id="linear-gradient" x1="264.17" y1="2472.93" x2="254.65" y2="2472.93" gradientTransform="translate(4105.67 -191.48) rotate(90) scale(1.08 1.64)" gradientUnits="userSpaceOnUse">
      <stop offset="0" stop-color="#10141b"/>
      <stop offset=".58" stop-color="#10141b" stop-opacity=".93"/>
      <stop offset=".79" stop-color="#10141b" stop-opacity=".68"/>
      <stop offset=".94" stop-color="#10141b" stop-opacity=".24"/>
      <stop offset="1" stop-color="#10141b" stop-opacity="0"/>
    </linearGradient>
    <linearGradient id="linear-gradient-2" x1="4584.56" y1="-1063.38" x2="4573.67" y2="-1063.38" gradientTransform="translate(4584.56 1148.2) rotate(-180) scale(1 -1)" xlink:href="#linear-gradient"/>
    <linearGradient id="linear-gradient-3" x1="3566.84" y1="-1063.38" x2="3555.96" y2="-1063.38" gradientTransform="translate(-3451.99 1148.2)" xlink:href="#linear-gradient"/>
  </defs>
  <rect class="cls-136" x="-1.78" y="-1.48" width="117.99" height="98.83"/>
  <g>
    <g>
      <path class="cls-10" d="M45.83,36.74c1.26.03,3.23.25,5.4,1.23,2.3,1.04,3.71,2.44,4.38,3.12,1.72,1.74,2.61,3.45,2.92,4.11,1.64,3.39,1.62,6.63,1.4,8.51-.3,2.62-1.19,4.48-1.47,5.04-.24.48-1.02,1.94-2.48,3.49-1.81,1.93-3.66,2.89-4.28,3.2-.58.29-2.61,1.24-5.47,1.48-3.22.27-5.64-.52-6.27-.74-.7-.24-2.6-.96-4.58-2.59-3.15-2.58-4.37-5.7-4.68-6.54-1.42-3.88-.84-7.25-.54-8.56.77-3.36,2.5-5.62,3.49-6.73.9-1.01,2.64-2.68,5.32-3.83,1.18-.51,2.29-.8,3.22-.97"/>
      <polygon class="cls-138" points="41.73 37.89 41.93 37.04 41.47 36.3 43.48 36.78 41.73 37.89"/>
    </g>
    <g>
      <g>
        <path class="cls-127" d="M31.13,77.99c0-1.22-.99-2.21-2.22-2.21s-2.22.99-2.22,2.21.99,2.21,2.22,2.21,2.22-.99,2.22-2.21Z"/>
        <path class="cls-2" d="M26.68,77.91c0-1.22-.99-2.21-2.22-2.21s-2.22.99-2.22,2.21.99,2.21,2.22,2.21,2.22-.99,2.22-2.21Z"/>
        <path class="cls-1" d="M22.24,77.99c0-1.22-.99-2.21-2.22-2.21s-2.22.99-2.22,2.21.99,2.21,2.22,2.21,2.22-.99,2.22-2.21Z"/>
        <path class="cls-7" d="M17.8,77.91c0-1.22-.99-2.21-2.22-2.21s-2.22.99-2.22,2.21.99,2.21,2.22,2.21,2.22-.99,2.22-2.21Z"/>
        <path class="cls-5" d="M13.36,77.99c0-1.22-.99-2.21-2.22-2.21s-2.22.99-2.22,2.21.99,2.21,2.22,2.21,2.22-.99,2.22-2.21Z"/>
        <path class="cls-3" d="M8.92,77.91c0-1.22-.99-2.21-2.22-2.21s-2.22.99-2.22,2.21.99,2.21,2.22,2.21,2.22-.99,2.22-2.21Z"/>
        <path class="cls-4" d="M29.05,80.64c0-1.22-.99-2.21-2.22-2.21s-2.22.99-2.22,2.21.99,2.21,2.22,2.21,2.22-.99,2.22-2.21Z"/>
        <path class="cls-6" d="M24.61,80.57c0-1.22-.99-2.21-2.22-2.21s-2.22.99-2.22,2.21.99,2.21,2.22,2.21,2.22-.99,2.22-2.21Z"/>
        <path class="cls-8" d="M20.17,80.64c0-1.22-.99-2.21-2.22-2.21s-2.22.99-2.22,2.21.99,2.21,2.22,2.21,2.22-.99,2.22-2.21Z"/>
        <path class="cls-119" d="M15.73,80.57c0-1.22-.99-2.21-2.22-2.21s-2.22.99-2.22,2.21.99,2.21,2.22,2.21,2.22-.99,2.22-2.21Z"/>
        <path class="cls-117" d="M11.29,80.64c0-1.22-.99-2.21-2.22-2.21s-2.22.99-2.22,2.21.99,2.21,2.22,2.21,2.22-.99,2.22-2.21Z"/>
        <path class="cls-121" d="M6.85,80.57c0-1.22-.99-2.21-2.22-2.21s-2.22.99-2.22,2.21.99,2.21,2.22,2.21,2.22-.99,2.22-2.21Z"/>
        <path class="cls-122" d="M27.2,84.18c0-1.22-.99-2.21-2.22-2.21s-2.22.99-2.22,2.21.99,2.21,2.22,2.21,2.22-.99,2.22-2.21Z"/>
        <path class="cls-123" d="M22.76,84.11c0-1.22-.99-2.21-2.22-2.21s-2.22.99-2.22,2.21.99,2.21,2.22,2.21,2.22-.99,2.22-2.21Z"/>
        <path class="cls-118" d="M18.32,84.18c0-1.22-.99-2.21-2.22-2.21s-2.22.99-2.22,2.21.99,2.21,2.22,2.21,2.22-.99,2.22-2.21Z"/>
        <path class="cls-126" d="M13.88,84.11c0-1.22-.99-2.21-2.22-2.21s-2.22.99-2.22,2.21.99,2.21,2.22,2.21,2.22-.99,2.22-2.21Z"/>
        <path class="cls-120" d="M9.44,84.18c0-1.22-.99-2.21-2.22-2.21s-2.22.99-2.22,2.21.99,2.21,2.22,2.21,2.22-.99,2.22-2.21Z"/>
        <path class="cls-115" d="M5,84.11c0-1.22-.99-2.21-2.22-2.21s-2.22.99-2.22,2.21.99,2.21,2.22,2.21,2.22-.99,2.22-2.21Z"/>
        <path class="cls-116" d="M57.77,77.99c0-1.22-.99-2.21-2.22-2.21s-2.22.99-2.22,2.21.99,2.21,2.22,2.21,2.22-.99,2.22-2.21Z"/>
        <path class="cls-66" d="M53.33,77.91c0-1.22-.99-2.21-2.22-2.21s-2.22.99-2.22,2.21.99,2.21,2.22,2.21,2.22-.99,2.22-2.21Z"/>
        <path class="cls-63" d="M48.89,77.99c0-1.22-.99-2.21-2.22-2.21s-2.22.99-2.22,2.21.99,2.21,2.22,2.21,2.22-.99,2.22-2.21Z"/>
        <path class="cls-56" d="M44.45,77.91c0-1.22-.99-2.21-2.22-2.21s-2.22.99-2.22,2.21.99,2.21,2.22,2.21,2.22-.99,2.22-2.21Z"/>
        <path class="cls-67" d="M40.01,77.99c0-1.22-.99-2.21-2.22-2.21s-2.22.99-2.22,2.21.99,2.21,2.22,2.21,2.22-.99,2.22-2.21Z"/>
        <path class="cls-65" d="M35.57,77.91c0-1.22-.99-2.21-2.22-2.21s-2.22.99-2.22,2.21.99,2.21,2.22,2.21,2.22-.99,2.22-2.21Z"/>
        <path class="cls-64" d="M55.7,80.64c0-1.22-.99-2.21-2.22-2.21s-2.22.99-2.22,2.21.99,2.21,2.22,2.21,2.22-.99,2.22-2.21Z"/>
        <path class="cls-68" d="M51.26,80.57c0-1.22-.99-2.21-2.22-2.21s-2.22.99-2.22,2.21.99,2.21,2.22,2.21,2.22-.99,2.22-2.21Z"/>
        <path class="cls-62" d="M46.81,80.64c0-1.22-.99-2.21-2.22-2.21s-2.22.99-2.22,2.21.99,2.21,2.22,2.21,2.22-.99,2.22-2.21Z"/>
        <path class="cls-70" d="M42.37,80.57c0-1.22-.99-2.21-2.22-2.21s-2.22.99-2.22,2.21.99,2.21,2.22,2.21,2.22-.99,2.22-2.21Z"/>
        <path class="cls-69" d="M37.93,80.64c0-1.22-.99-2.21-2.22-2.21s-2.22.99-2.22,2.21.99,2.21,2.22,2.21,2.22-.99,2.22-2.21Z"/>
        <path class="cls-60" d="M33.49,80.57c0-1.22-.99-2.21-2.22-2.21s-2.22.99-2.22,2.21.99,2.21,2.22,2.21,2.22-.99,2.22-2.21Z"/>
        <path class="cls-61" d="M53.85,84.18c0-1.22-.99-2.21-2.22-2.21s-2.22.99-2.22,2.21.99,2.21,2.22,2.21,2.22-.99,2.22-2.21Z"/>
        <path class="cls-51" d="M49.41,84.11c0-1.22-.99-2.21-2.22-2.21s-2.22.99-2.22,2.21.99,2.21,2.22,2.21,2.22-.99,2.22-2.21Z"/>
        <path class="cls-57" d="M44.96,84.18c0-1.22-.99-2.21-2.22-2.21s-2.22.99-2.22,2.21.99,2.21,2.22,2.21,2.22-.99,2.22-2.21Z"/>
        <path class="cls-71" d="M40.52,84.11c0-1.22-.99-2.21-2.22-2.21s-2.22.99-2.22,2.21.99,2.21,2.22,2.21,2.22-.99,2.22-2.21Z"/>
        <path class="cls-53" d="M36.08,84.18c0-1.22-.99-2.21-2.22-2.21s-2.22.99-2.22,2.21.99,2.21,2.22,2.21,2.22-.99,2.22-2.21Z"/>
        <path class="cls-55" d="M31.64,84.11c0-1.22-.99-2.21-2.22-2.21s-2.22.99-2.22,2.21.99,2.21,2.22,2.21,2.22-.99,2.22-2.21Z"/>
        <path class="cls-54" d="M28.39,91.73c0-1.22-.99-2.21-2.22-2.21s-2.22.99-2.22,2.21.99,2.21,2.22,2.21,2.22-.99,2.22-2.21Z"/>
        <path class="cls-59" d="M23.95,91.66c0-1.22-.99-2.21-2.22-2.21s-2.22.99-2.22,2.21.99,2.21,2.22,2.21,2.22-.99,2.22-2.21Z"/>
        <path class="cls-58" d="M19.5,91.73c0-1.22-.99-2.21-2.22-2.21s-2.22.99-2.22,2.21.99,2.21,2.22,2.21,2.22-.99,2.22-2.21Z"/>
        <path class="cls-86" d="M15.06,91.66c0-1.22-.99-2.21-2.22-2.21s-2.22.99-2.22,2.21.99,2.21,2.22,2.21,2.22-.99,2.22-2.21Z"/>
        <path class="cls-85" d="M10.62,91.73c0-1.22-.99-2.21-2.22-2.21s-2.22.99-2.22,2.21.99,2.21,2.22,2.21,2.22-.99,2.22-2.21Z"/>
        <path class="cls-80" d="M6.18,91.66c0-1.22-.99-2.21-2.22-2.21s-2.22.99-2.22,2.21.99,2.21,2.22,2.21,2.22-.99,2.22-2.21Z"/>
        <path class="cls-88" d="M29.87,87.9c0-1.22-.99-2.21-2.22-2.21s-2.22.99-2.22,2.21.99,2.21,2.22,2.21,2.22-.99,2.22-2.21Z"/>
        <path class="cls-87" d="M25.43,87.82c0-1.22-.99-2.21-2.22-2.21s-2.22.99-2.22,2.21.99,2.21,2.22,2.21,2.22-.99,2.22-2.21Z"/>
        <path class="cls-82" d="M20.99,87.9c0-1.22-.99-2.21-2.22-2.21s-2.22.99-2.22,2.21.99,2.21,2.22,2.21,2.22-.99,2.22-2.21Z"/>
        <path class="cls-81" d="M16.54,87.82c0-1.22-.99-2.21-2.22-2.21s-2.22.99-2.22,2.21.99,2.21,2.22,2.21,2.22-.99,2.22-2.21Z"/>
        <path class="cls-125" d="M12.1,87.9c0-1.22-.99-2.21-2.22-2.21s-2.22.99-2.22,2.21.99,2.21,2.22,2.21,2.22-.99,2.22-2.21Z"/>
        <path class="cls-124" d="M7.66,87.82c0-1.22-.99-2.21-2.22-2.21s-2.22.99-2.22,2.21.99,2.21,2.22,2.21,2.22-.99,2.22-2.21Z"/>
        <path class="cls-83" d="M55.03,91.73c0-1.22-.99-2.21-2.22-2.21s-2.22.99-2.22,2.21.99,2.21,2.22,2.21,2.22-.99,2.22-2.21Z"/>
        <path class="cls-75" d="M50.59,91.66c0-1.22-.99-2.21-2.22-2.21s-2.22.99-2.22,2.21.99,2.21,2.22,2.21,2.22-.99,2.22-2.21Z"/>
        <path class="cls-73" d="M46.15,91.73c0-1.22-.99-2.21-2.22-2.21s-2.22.99-2.22,2.21.99,2.21,2.22,2.21,2.22-.99,2.22-2.21Z"/>
        <path class="cls-79" d="M41.71,91.66c0-1.22-.99-2.21-2.22-2.21s-2.22.99-2.22,2.21.99,2.21,2.22,2.21,2.22-.99,2.22-2.21Z"/>
        <path class="cls-77" d="M37.27,91.73c0-1.22-.99-2.21-2.22-2.21s-2.22.99-2.22,2.21.99,2.21,2.22,2.21,2.22-.99,2.22-2.21Z"/>
        <path class="cls-78" d="M32.83,91.66c0-1.22-.99-2.21-2.22-2.21s-2.22.99-2.22,2.21.99,2.21,2.22,2.21,2.22-.99,2.22-2.21Z"/>
        <path class="cls-74" d="M56.51,87.9c0-1.22-.99-2.21-2.22-2.21s-2.22.99-2.22,2.21.99,2.21,2.22,2.21,2.22-.99,2.22-2.21Z"/>
        <path class="cls-76" d="M52.07,87.82c0-1.22-.99-2.21-2.22-2.21s-2.22.99-2.22,2.21.99,2.21,2.22,2.21,2.22-.99,2.22-2.21Z"/>
        <path class="cls-84" d="M47.63,87.9c0-1.22-.99-2.21-2.22-2.21s-2.22.99-2.22,2.21.99,2.21,2.22,2.21,2.22-.99,2.22-2.21Z"/>
        <path class="cls-72" d="M43.19,87.82c0-1.22-.99-2.21-2.22-2.21s-2.22.99-2.22,2.21.99,2.21,2.22,2.21,2.22-.99,2.22-2.21Z"/>
        <path class="cls-52" d="M38.75,87.9c0-1.22-.99-2.21-2.22-2.21s-2.22.99-2.22,2.21.99,2.21,2.22,2.21,2.22-.99,2.22-2.21Z"/>
        <path class="cls-97" d="M34.31,87.82c0-1.22-.99-2.21-2.22-2.21s-2.22.99-2.22,2.21.99,2.21,2.22,2.21,2.22-.99,2.22-2.21Z"/>
      </g>
      <path class="cls-99" d="M84.47,77.99c0-1.22-.99-2.21-2.22-2.21s-2.22.99-2.22,2.21.99,2.21,2.22,2.21,2.22-.99,2.22-2.21Z"/>
      <path class="cls-100" d="M80.02,77.91c0-1.22-.99-2.21-2.22-2.21s-2.22.99-2.22,2.21.99,2.21,2.22,2.21,2.22-.99,2.22-2.21Z"/>
      <path class="cls-102" d="M75.58,77.99c0-1.22-.99-2.21-2.22-2.21s-2.22.99-2.22,2.21.99,2.21,2.22,2.21,2.22-.99,2.22-2.21Z"/>
      <path class="cls-101" d="M71.14,77.91c0-1.22-.99-2.21-2.22-2.21s-2.22.99-2.22,2.21.99,2.21,2.22,2.21,2.22-.99,2.22-2.21Z"/>
      <path class="cls-104" d="M66.7,77.99c0-1.22-.99-2.21-2.22-2.21s-2.22.99-2.22,2.21.99,2.21,2.22,2.21,2.22-.99,2.22-2.21Z"/>
      <path class="cls-98" d="M62.26,77.91c0-1.22-.99-2.21-2.22-2.21s-2.22.99-2.22,2.21.99,2.21,2.22,2.21,2.22-.99,2.22-2.21Z"/>
      <path class="cls-103" d="M82.39,80.64c0-1.22-.99-2.21-2.22-2.21s-2.22.99-2.22,2.21.99,2.21,2.22,2.21,2.22-.99,2.22-2.21Z"/>
      <path class="cls-95" d="M77.95,80.57c0-1.22-.99-2.21-2.22-2.21s-2.22.99-2.22,2.21.99,2.21,2.22,2.21,2.22-.99,2.22-2.21Z"/>
      <path class="cls-96" d="M73.51,80.64c0-1.22-.99-2.21-2.22-2.21s-2.22.99-2.22,2.21.99,2.21,2.22,2.21,2.22-.99,2.22-2.21Z"/>
      <path class="cls-90" d="M69.07,80.57c0-1.22-.99-2.21-2.22-2.21s-2.22.99-2.22,2.21.99,2.21,2.22,2.21,2.22-.99,2.22-2.21Z"/>
      <path class="cls-47" d="M64.63,80.64c0-1.22-.99-2.21-2.22-2.21s-2.22.99-2.22,2.21.99,2.21,2.22,2.21,2.22-.99,2.22-2.21Z"/>
      <path class="cls-91" d="M60.19,80.57c0-1.22-.99-2.21-2.22-2.21s-2.22.99-2.22,2.21.99,2.21,2.22,2.21,2.22-.99,2.22-2.21Z"/>
      <path class="cls-50" d="M80.54,84.18c0-1.22-.99-2.21-2.22-2.21s-2.22.99-2.22,2.21.99,2.21,2.22,2.21,2.22-.99,2.22-2.21Z"/>
      <path class="cls-49" d="M76.1,84.11c0-1.22-.99-2.21-2.22-2.21s-2.22.99-2.22,2.21.99,2.21,2.22,2.21,2.22-.99,2.22-2.21Z"/>
      <path class="cls-93" d="M71.66,84.18c0-1.22-.99-2.21-2.22-2.21s-2.22.99-2.22,2.21.99,2.21,2.22,2.21,2.22-.99,2.22-2.21Z"/>
      <path class="cls-48" d="M67.22,84.11c0-1.22-.99-2.21-2.22-2.21s-2.22.99-2.22,2.21.99,2.21,2.22,2.21,2.22-.99,2.22-2.21Z"/>
      <path class="cls-94" d="M62.78,84.18c0-1.22-.99-2.21-2.22-2.21s-2.22.99-2.22,2.21.99,2.21,2.22,2.21,2.22-.99,2.22-2.21Z"/>
      <path class="cls-92" d="M58.34,84.11c0-1.22-.99-2.21-2.22-2.21s-2.22.99-2.22,2.21.99,2.21,2.22,2.21,2.22-.99,2.22-2.21Z"/>
      <path class="cls-89" d="M111.11,77.99c0-1.22-.99-2.21-2.22-2.21s-2.22.99-2.22,2.21.99,2.21,2.22,2.21,2.22-.99,2.22-2.21Z"/>
      <path class="cls-111" d="M106.67,77.91c0-1.22-.99-2.21-2.22-2.21s-2.22.99-2.22,2.21.99,2.21,2.22,2.21,2.22-.99,2.22-2.21Z"/>
      <path class="cls-114" d="M102.23,77.99c0-1.22-.99-2.21-2.22-2.21s-2.22.99-2.22,2.21.99,2.21,2.22,2.21,2.22-.99,2.22-2.21Z"/>
      <path class="cls-113" d="M97.79,77.91c0-1.22-.99-2.21-2.22-2.21s-2.22.99-2.22,2.21.99,2.21,2.22,2.21,2.22-.99,2.22-2.21Z"/>
      <path class="cls-110" d="M93.35,77.99c0-1.22-.99-2.21-2.22-2.21s-2.22.99-2.22,2.21.99,2.21,2.22,2.21,2.22-.99,2.22-2.21Z"/>
      <path class="cls-106" d="M88.9,77.91c0-1.22-.99-2.21-2.22-2.21s-2.22.99-2.22,2.21.99,2.21,2.22,2.21,2.22-.99,2.22-2.21Z"/>
      <path class="cls-112" d="M113.48,80.57c0-1.22-.99-2.21-2.22-2.21s-2.22.99-2.22,2.21.99,2.21,2.22,2.21,2.22-.99,2.22-2.21Z"/>
      <path class="cls-107" d="M109.04,80.64c0-1.22-.99-2.21-2.22-2.21s-2.22.99-2.22,2.21.99,2.21,2.22,2.21,2.22-.99,2.22-2.21Z"/>
      <path class="cls-109" d="M104.6,80.57c0-1.22-.99-2.21-2.22-2.21s-2.22.99-2.22,2.21.99,2.21,2.22,2.21,2.22-.99,2.22-2.21Z"/>
      <path class="cls-108" d="M100.15,80.64c0-1.22-.99-2.21-2.22-2.21s-2.22.99-2.22,2.21.99,2.21,2.22,2.21,2.22-.99,2.22-2.21Z"/>
      <path class="cls-105" d="M95.71,80.57c0-1.22-.99-2.21-2.22-2.21s-2.22.99-2.22,2.21.99,2.21,2.22,2.21,2.22-.99,2.22-2.21Z"/>
      <path class="cls-37" d="M91.27,80.64c0-1.22-.99-2.21-2.22-2.21s-2.22.99-2.22,2.21.99,2.21,2.22,2.21,2.22-.99,2.22-2.21Z"/>
      <path class="cls-46" d="M86.83,80.57c0-1.22-.99-2.21-2.22-2.21s-2.22.99-2.22,2.21.99,2.21,2.22,2.21,2.22-.99,2.22-2.21Z"/>
      <path class="cls-43" d="M111.63,84.11c0-1.22-.99-2.21-2.22-2.21s-2.22.99-2.22,2.21.99,2.21,2.22,2.21,2.22-.99,2.22-2.21Z"/>
      <path class="cls-40" d="M107.19,84.18c0-1.22-.99-2.21-2.22-2.21s-2.22.99-2.22,2.21.99,2.21,2.22,2.21,2.22-.99,2.22-2.21Z"/>
      <path class="cls-44" d="M102.75,84.11c0-1.22-.99-2.21-2.22-2.21s-2.22.99-2.22,2.21.99,2.21,2.22,2.21,2.22-.99,2.22-2.21Z"/>
      <path class="cls-41" d="M98.3,84.18c0-1.22-.99-2.21-2.22-2.21s-2.22.99-2.22,2.21.99,2.21,2.22,2.21,2.22-.99,2.22-2.21Z"/>
      <path class="cls-45" d="M93.86,84.11c0-1.22-.99-2.21-2.22-2.21s-2.22.99-2.22,2.21.99,2.21,2.22,2.21,2.22-.99,2.22-2.21Z"/>
      <path class="cls-39" d="M89.42,84.18c0-1.22-.99-2.21-2.22-2.21s-2.22.99-2.22,2.21.99,2.21,2.22,2.21,2.22-.99,2.22-2.21Z"/>
      <path class="cls-42" d="M84.98,84.11c0-1.22-.99-2.21-2.22-2.21s-2.22.99-2.22,2.21.99,2.21,2.22,2.21,2.22-.99,2.22-2.21Z"/>
      <path class="cls-38" d="M81.73,91.73c0-1.22-.99-2.21-2.22-2.21s-2.22.99-2.22,2.21.99,2.21,2.22,2.21,2.22-.99,2.22-2.21Z"/>
      <path class="cls-15" d="M77.29,91.66c0-1.22-.99-2.21-2.22-2.21s-2.22.99-2.22,2.21.99,2.21,2.22,2.21,2.22-.99,2.22-2.21Z"/>
      <path class="cls-11" d="M72.84,91.73c0-1.22-.99-2.21-2.22-2.21s-2.22.99-2.22,2.21.99,2.21,2.22,2.21,2.22-.99,2.22-2.21Z"/>
      <path class="cls-18" d="M68.4,91.66c0-1.22-.99-2.21-2.22-2.21s-2.22.99-2.22,2.21.99,2.21,2.22,2.21,2.22-.99,2.22-2.21Z"/>
      <path class="cls-16" d="M63.96,91.73c0-1.22-.99-2.21-2.22-2.21s-2.22.99-2.22,2.21.99,2.21,2.22,2.21,2.22-.99,2.22-2.21Z"/>
      <path class="cls-17" d="M59.52,91.66c0-1.22-.99-2.21-2.22-2.21s-2.22.99-2.22,2.21.99,2.21,2.22,2.21,2.22-.99,2.22-2.21Z"/>
      <path class="cls-13" d="M83.21,87.9c0-1.22-.99-2.21-2.22-2.21s-2.22.99-2.22,2.21.99,2.21,2.22,2.21,2.22-.99,2.22-2.21Z"/>
      <path class="cls-12" d="M78.77,87.82c0-1.22-.99-2.21-2.22-2.21s-2.22.99-2.22,2.21.99,2.21,2.22,2.21,2.22-.99,2.22-2.21Z"/>
      <path class="cls-20" d="M74.33,87.9c0-1.22-.99-2.21-2.22-2.21s-2.22.99-2.22,2.21.99,2.21,2.22,2.21,2.22-.99,2.22-2.21Z"/>
      <path class="cls-19" d="M69.88,87.82c0-1.22-.99-2.21-2.22-2.21s-2.22.99-2.22,2.21.99,2.21,2.22,2.21,2.22-.99,2.22-2.21Z"/>
      <path class="cls-14" d="M65.44,87.9c0-1.22-.99-2.21-2.22-2.21s-2.22.99-2.22,2.21.99,2.21,2.22,2.21,2.22-.99,2.22-2.21Z"/>
      <path class="cls-28" d="M61,87.82c0-1.22-.99-2.21-2.22-2.21s-2.22.99-2.22,2.21.99,2.21,2.22,2.21,2.22-.99,2.22-2.21Z"/>
      <path class="cls-26" d="M112.81,91.66c0-1.22-.99-2.21-2.22-2.21s-2.22.99-2.22,2.21.99,2.21,2.22,2.21,2.22-.99,2.22-2.21Z"/>
      <path class="cls-27" d="M108.37,91.73c0-1.22-.99-2.21-2.22-2.21s-2.22.99-2.22,2.21.99,2.21,2.22,2.21,2.22-.99,2.22-2.21Z"/>
      <path class="cls-29" d="M103.93,91.66c0-1.22-.99-2.21-2.22-2.21s-2.22.99-2.22,2.21.99,2.21,2.22,2.21,2.22-.99,2.22-2.21Z"/>
      <path class="cls-33" d="M99.49,91.73c0-1.22-.99-2.21-2.22-2.21s-2.22.99-2.22,2.21.99,2.21,2.22,2.21,2.22-.99,2.22-2.21Z"/>
      <path class="cls-35" d="M95.05,91.66c0-1.22-.99-2.21-2.22-2.21s-2.22.99-2.22,2.21.99,2.21,2.22,2.21,2.22-.99,2.22-2.21Z"/>
      <path class="cls-32" d="M90.61,91.73c0-1.22-.99-2.21-2.22-2.21s-2.22.99-2.22,2.21.99,2.21,2.22,2.21,2.22-.99,2.22-2.21Z"/>
      <path class="cls-31" d="M86.17,91.66c0-1.22-.99-2.21-2.22-2.21s-2.22.99-2.22,2.21.99,2.21,2.22,2.21,2.22-.99,2.22-2.21Z"/>
      <path class="cls-30" d="M114.29,87.82c0-1.22-.99-2.21-2.22-2.21s-2.22.99-2.22,2.21.99,2.21,2.22,2.21,2.22-.99,2.22-2.21Z"/>
      <path class="cls-34" d="M109.85,87.9c0-1.22-.99-2.21-2.22-2.21s-2.22.99-2.22,2.21.99,2.21,2.22,2.21,2.22-.99,2.22-2.21Z"/>
      <path class="cls-25" d="M105.41,87.82c0-1.22-.99-2.21-2.22-2.21s-2.22.99-2.22,2.21.99,2.21,2.22,2.21,2.22-.99,2.22-2.21Z"/>
      <path class="cls-23" d="M100.97,87.9c0-1.22-.99-2.21-2.22-2.21s-2.22.99-2.22,2.21.99,2.21,2.22,2.21,2.22-.99,2.22-2.21Z"/>
      <path class="cls-24" d="M96.53,87.82c0-1.22-.99-2.21-2.22-2.21s-2.22.99-2.22,2.21.99,2.21,2.22,2.21,2.22-.99,2.22-2.21Z"/>
      <path class="cls-21" d="M92.09,87.9c0-1.22-.99-2.21-2.22-2.21s-2.22.99-2.22,2.21.99,2.21,2.22,2.21,2.22-.99,2.22-2.21Z"/>
      <path class="cls-22" d="M87.65,87.82c0-1.22-.99-2.21-2.22-2.21s-2.22.99-2.22,2.21.99,2.21,2.22,2.21,2.22-.99,2.22-2.21Z"/>
      <rect class="cls-135" x=".21" y="84.3" width="114.44" height="10.3"/>
      <rect class="cls-133" x="0" y="74.98" width="10.88" height="19.69"/>
      <rect class="cls-132" x="103.96" y="74.98" width="10.88" height="19.69"/>
    </g>
    <g>
      <path class="cls-9" d="M87.19,73.85c-.63-2.61,1.11-4.61,2.1-6.79,1.55-4.76-6.13-5.14-5-9.71.49-3.19,3.82-4.84,5.66-7.27,4.61-8.47-8.21-5.58-7.64-12.52.07-2.6,2.6-4.03,3.94-5.83,2.62-4.19-3.06-7.57-6.55-4.93-1.21.69-2.24,1.92-3.72,1.94-2.2-.08-4.29-2.27-6.53-1.75-4.1,1.31-6.65,6.58-5.92,11.02"/>
      <g>
        <g>
          <path class="cls-140" d="M49.42,45.01c0,.07-.03.13-.04.19,4.63-2.38,7.99,5.16,3.16,7.01,4.28,2.93-.74,9.49-4.7,6.09.05,4.16-6.2,5.09-7.45,1.2-4.16,4.43-8.1,9.21-11.24,14.38,1.6,2.54-2.68,4.68-3.77,1.89-.61-1.44.69-3.11,2.23-2.86,1.92-3.75,5.1-6.99,7.55-10.44-1.58-.9.29-4.72.39-6.28-1.7-1.75-1.02-5.05,1.2-6-3.77-3.16,1.23-9.11,5-5.88.23-5.13,8.34-4.39,7.67.7ZM39.85,57.23c-.83.35-1.88.38-2.75.03-.13,1.53-.1,3.23-1.09,4.48,1.37-1.36,2.62-3.02,3.84-4.51ZM47.3,48.02c-1.28.68-3.08.47-4.17-.49-.04,1.42-.97,2.64-2.15,3.21,1.11.94,1.63,2.63,1.14,4.08,1.3-.79,3.22-.61,4.36.4,0-1.55,1.05-2.9,2.39-3.44-1.15-.81-1.87-2.29-1.56-3.77Z"/>
          <path class="cls-140" d="M42.08,44.31c-1.46,2.88.76,3.29,2.56,6.27,7.07,5.46,24.7,1.93,20.8-9.85l-4.48-3.1c4.42,8.49-.63,13.14-9.37,11.78-1.9,0-6.06-.27-4.81-3.03"/>
          <path class="cls-128" d="M65.03,35.69c-.77.28-4.61-.51-4.45,1.05.29.78-.52,4.98,1.07,4.81.77-.28,4.61.51,4.45-1.05-.29-.78.52-4.98-1.07-4.81Z"/>
        </g>
        <g>
          <g>
            <path class="cls-137" d="M83.74,77.25c-1.17,0-1.86-.23-2.03-.69-.29-.77.76-2.21,3.11-4.29.76-.75,1.67-1.15,2.64-1.15,1.52,0,3.07.98,3.95,2.5.75,1.02.98,1.81.7,2.37-.54,1.07-2.86,1.22-5.05,1.22-.38,0-1.72-.02-2-.02-.6,0-.99.02-1.27.06h-.05Z"/>
            <path class="cls-139" d="M87.46,71.23c1.48,0,2.99.96,3.87,2.46.72.97.95,1.73.68,2.25-.52,1.03-2.92,1.16-4.96,1.16-.37,0-.74,0-1.09,0-.32,0-.62,0-.9,0-.61,0-1.01.02-1.26.05h-.07c-1.11,0-1.77-.22-1.93-.62-.27-.72.76-2.12,3.09-4.17.73-.73,1.61-1.11,2.56-1.11M87.46,71.01c-.94,0-1.89.36-2.71,1.18-1.59,1.4-5.72,5.17-1.01,5.17.02,0,.05,0,.07,0,.31-.04.75-.05,1.26-.05.59,0,1.28.02,1.99.02,3.23,0,6.98-.31,4.45-3.75-.9-1.54-2.46-2.55-4.05-2.55h0Z"/>
          </g>
          <text class="cls-141" transform="translate(89.25 79.47) rotate(-180) scale(1 -1)"><tspan x="0" y="0">*</tspan></text>
        </g>
      </g>
      <g>
        <path class="cls-36" d="M67.14,29.69c-.81-.13-3.81-2.65-4.41-1.2-.11.82-2.84,4.13-1.36,4.74.81.13,3.81,2.65,4.42,1.2.11-.82,2.84-4.13,1.36-4.74Z"/>
        <path class="cls-134" d="M67.57,30.6l-3.41,1.48c-.48.38-1.04-3.32-1.24-3.86.87-.81,3.48,1.35,4.23,1.47.38.15.48.48.42.9Z"/>
        <path class="cls-129" d="M67.57,30.6c-.16,1.23-1.71,3.22-1.78,3.83-.61,1.45-3.61-1.07-4.41-1.2-1.48-.61,1.24-3.92,1.36-4.74.04-.11.1-.2.18-.27.87-.81,3.48,1.35,4.23,1.47.38.15.48.48.42.9Z"/>
      </g>
    </g>
  </g>
  <text class="cls-131" transform="translate(20.82 18.4)"><tspan x="0" y="0">1 mM</tspan><tspan class="cls-144" x="40" y="0"> </tspan><tspan class="cls-142" x="43.56" y="0">A</tspan><tspan x="53.05" y="0">T</tspan><tspan class="cls-143" x="62.82" y="0">P</tspan></text>
  <g>
    <path class="cls-130" d="M26.78,18.4h-1.41v-8.96c-.34.32-.78.65-1.33.97-.55.32-1.04.57-1.48.73v-1.36c.79-.37,1.47-.82,2.06-1.34.59-.53,1-1.04,1.25-1.53h.91v11.5Z"/>
    <path class="cls-130" d="M35.22,18.4v-8.3h1.26v1.16c.26-.41.61-.73,1.04-.98.43-.25.92-.37,1.48-.37.61,0,1.12.13,1.51.38.39.25.67.61.83,1.07.66-.97,1.51-1.45,2.56-1.45.82,0,1.46.23,1.9.68.44.46.66,1.16.66,2.11v5.7h-1.4v-5.23c0-.56-.05-.97-.14-1.21-.09-.25-.26-.45-.5-.6-.24-.15-.52-.23-.84-.23-.58,0-1.07.19-1.45.58-.39.39-.58,1.01-.58,1.86v4.82h-1.41v-5.39c0-.62-.11-1.09-.34-1.41-.23-.31-.6-.47-1.12-.47-.4,0-.76.1-1.1.31s-.58.51-.73.91c-.15.4-.23.98-.23,1.73v4.3h-1.41Z"/>
    <path class="cls-130" d="M48.68,18.4V6.94h2.28l2.71,8.11c.25.75.43,1.32.55,1.7.13-.42.33-1.03.61-1.84l2.74-7.97h2.04v11.45h-1.46v-9.59l-3.33,9.59h-1.37l-3.31-9.75v9.75h-1.46Z"/>
    <path class="cls-130" d="M64.36,18.4l4.4-11.45h1.63l4.69,11.45h-1.73l-1.34-3.47h-4.79l-1.26,3.47h-1.61ZM67.67,13.69h3.88l-1.2-3.17c-.36-.96-.64-1.75-.81-2.38-.15.73-.35,1.46-.62,2.19l-1.26,3.36Z"/>
    <path class="cls-130" d="M78.02,18.4v-10.1h-3.77v-1.35h9.08v1.35h-3.79v10.1h-1.52Z"/>
    <path class="cls-130" d="M84.88,18.4V6.94h4.32c.76,0,1.34.04,1.74.11.56.09,1.03.27,1.41.54.38.26.69.63.92,1.11.23.47.35,1,.35,1.56,0,.97-.31,1.8-.93,2.47-.62.67-1.74,1.01-3.36,1.01h-2.94v4.66h-1.52ZM86.39,12.39h2.96c.98,0,1.67-.18,2.09-.55.41-.36.62-.88.62-1.54,0-.48-.12-.89-.36-1.23s-.56-.57-.96-.68c-.26-.07-.73-.1-1.41-.1h-2.93v4.09Z"/>
  </g>
  <g>
    <path class="cls-130" d="M26.78,18.4h-1.41v-8.96c-.34.32-.78.65-1.33.97-.55.32-1.04.57-1.48.73v-1.36c.79-.37,1.47-.82,2.06-1.34.59-.53,1-1.04,1.25-1.53h.91v11.5Z"/>
    <path class="cls-130" d="M35.22,18.4v-8.3h1.26v1.16c.26-.41.61-.73,1.04-.98.43-.25.92-.37,1.48-.37.61,0,1.12.13,1.51.38.39.25.67.61.83,1.07.66-.97,1.51-1.45,2.56-1.45.82,0,1.46.23,1.9.68.44.46.66,1.16.66,2.11v5.7h-1.4v-5.23c0-.56-.05-.97-.14-1.21-.09-.25-.26-.45-.5-.6-.24-.15-.52-.23-.84-.23-.58,0-1.07.19-1.45.58-.39.39-.58,1.01-.58,1.86v4.82h-1.41v-5.39c0-.62-.11-1.09-.34-1.41-.23-.31-.6-.47-1.12-.47-.4,0-.76.1-1.1.31s-.58.51-.73.91c-.15.4-.23.98-.23,1.73v4.3h-1.41Z"/>
    <path class="cls-130" d="M48.68,18.4V6.94h2.28l2.71,8.11c.25.75.43,1.32.55,1.7.13-.42.33-1.03.61-1.84l2.74-7.97h2.04v11.45h-1.46v-9.59l-3.33,9.59h-1.37l-3.31-9.75v9.75h-1.46Z"/>
    <path class="cls-130" d="M64.36,18.4l4.4-11.45h1.63l4.69,11.45h-1.73l-1.34-3.47h-4.79l-1.26,3.47h-1.61ZM67.67,13.69h3.88l-1.2-3.17c-.36-.96-.64-1.75-.81-2.38-.15.73-.35,1.46-.62,2.19l-1.26,3.36Z"/>
    <path class="cls-130" d="M78.02,18.4v-10.1h-3.77v-1.35h9.08v1.35h-3.79v10.1h-1.52Z"/>
    <path class="cls-130" d="M84.88,18.4V6.94h4.32c.76,0,1.34.04,1.74.11.56.09,1.03.27,1.41.54.38.26.69.63.92,1.11.23.47.35,1,.35,1.56,0,.97-.31,1.8-.93,2.47-.62.67-1.74,1.01-3.36,1.01h-2.94v4.66h-1.52ZM86.39,12.39h2.96c.98,0,1.67-.18,2.09-.55.41-.36.62-.88.62-1.54,0-.48-.12-.89-.36-1.23s-.56-.57-.96-.68c-.26-.07-.73-.1-1.41-.1h-2.93v4.09Z"/>
  </g>
  <g>
    <path class="cls-130" d="M26.78,18.4h-1.41v-8.96c-.34.32-.78.65-1.33.97-.55.32-1.04.57-1.48.73v-1.36c.79-.37,1.47-.82,2.06-1.34.59-.53,1-1.04,1.25-1.53h.91v11.5Z"/>
    <path class="cls-130" d="M35.22,18.4v-8.3h1.26v1.16c.26-.41.61-.73,1.04-.98.43-.25.92-.37,1.48-.37.61,0,1.12.13,1.51.38.39.25.67.61.83,1.07.66-.97,1.51-1.45,2.56-1.45.82,0,1.46.23,1.9.68.44.46.66,1.16.66,2.11v5.7h-1.4v-5.23c0-.56-.05-.97-.14-1.21-.09-.25-.26-.45-.5-.6-.24-.15-.52-.23-.84-.23-.58,0-1.07.19-1.45.58-.39.39-.58,1.01-.58,1.86v4.82h-1.41v-5.39c0-.62-.11-1.09-.34-1.41-.23-.31-.6-.47-1.12-.47-.4,0-.76.1-1.1.31s-.58.51-.73.91c-.15.4-.23.98-.23,1.73v4.3h-1.41Z"/>
    <path class="cls-130" d="M48.68,18.4V6.94h2.28l2.71,8.11c.25.75.43,1.32.55,1.7.13-.42.33-1.03.61-1.84l2.74-7.97h2.04v11.45h-1.46v-9.59l-3.33,9.59h-1.37l-3.31-9.75v9.75h-1.46Z"/>
    <path class="cls-130" d="M64.36,18.4l4.4-11.45h1.63l4.69,11.45h-1.73l-1.34-3.47h-4.79l-1.26,3.47h-1.61ZM67.67,13.69h3.88l-1.2-3.17c-.36-.96-.64-1.75-.81-2.38-.15.73-.35,1.46-.62,2.19l-1.26,3.36Z"/>
    <path class="cls-130" d="M78.02,18.4v-10.1h-3.77v-1.35h9.08v1.35h-3.79v10.1h-1.52Z"/>
    <path class="cls-130" d="M84.88,18.4V6.94h4.32c.76,0,1.34.04,1.74.11.56.09,1.03.27,1.41.54.38.26.69.63.92,1.11.23.47.35,1,.35,1.56,0,.97-.31,1.8-.93,2.47-.62.67-1.74,1.01-3.36,1.01h-2.94v4.66h-1.52ZM86.39,12.39h2.96c.98,0,1.67-.18,2.09-.55.41-.36.62-.88.62-1.54,0-.48-.12-.89-.36-1.23s-.56-.57-.96-.68c-.26-.07-.73-.1-1.41-.1h-2.93v4.09Z"/>
  </g>
  <g>
    <path class="cls-130" d="M26.78,18.4h-1.41v-8.96c-.34.32-.78.65-1.33.97-.55.32-1.04.57-1.48.73v-1.36c.79-.37,1.47-.82,2.06-1.34.59-.53,1-1.04,1.25-1.53h.91v11.5Z"/>
    <path class="cls-130" d="M35.22,18.4v-8.3h1.26v1.16c.26-.41.61-.73,1.04-.98.43-.25.92-.37,1.48-.37.61,0,1.12.13,1.51.38.39.25.67.61.83,1.07.66-.97,1.51-1.45,2.56-1.45.82,0,1.46.23,1.9.68.44.46.66,1.16.66,2.11v5.7h-1.4v-5.23c0-.56-.05-.97-.14-1.21-.09-.25-.26-.45-.5-.6-.24-.15-.52-.23-.84-.23-.58,0-1.07.19-1.45.58-.39.39-.58,1.01-.58,1.86v4.82h-1.41v-5.39c0-.62-.11-1.09-.34-1.41-.23-.31-.6-.47-1.12-.47-.4,0-.76.1-1.1.31s-.58.51-.73.91c-.15.4-.23.98-.23,1.73v4.3h-1.41Z"/>
    <path class="cls-130" d="M48.68,18.4V6.94h2.28l2.71,8.11c.25.75.43,1.32.55,1.7.13-.42.33-1.03.61-1.84l2.74-7.97h2.04v11.45h-1.46v-9.59l-3.33,9.59h-1.37l-3.31-9.75v9.75h-1.46Z"/>
    <path class="cls-130" d="M64.36,18.4l4.4-11.45h1.63l4.69,11.45h-1.73l-1.34-3.47h-4.79l-1.26,3.47h-1.61ZM67.67,13.69h3.88l-1.2-3.17c-.36-.96-.64-1.75-.81-2.38-.15.73-.35,1.46-.62,2.19l-1.26,3.36Z"/>
    <path class="cls-130" d="M78.02,18.4v-10.1h-3.77v-1.35h9.08v1.35h-3.79v10.1h-1.52Z"/>
    <path class="cls-130" d="M84.88,18.4V6.94h4.32c.76,0,1.34.04,1.74.11.56.09,1.03.27,1.41.54.38.26.69.63.92,1.11.23.47.35,1,.35,1.56,0,.97-.31,1.8-.93,2.47-.62.67-1.74,1.01-3.36,1.01h-2.94v4.66h-1.52ZM86.39,12.39h2.96c.98,0,1.67-.18,2.09-.55.41-.36.62-.88.62-1.54,0-.48-.12-.89-.36-1.23s-.56-.57-.96-.68c-.26-.07-.73-.1-1.41-.1h-2.93v4.09Z"/>
  </g>
  <g>
    <path class="cls-130" d="M26.78,18.4h-1.41v-8.96c-.34.32-.78.65-1.33.97-.55.32-1.04.57-1.48.73v-1.36c.79-.37,1.47-.82,2.06-1.34.59-.53,1-1.04,1.25-1.53h.91v11.5Z"/>
    <path class="cls-130" d="M35.22,18.4v-8.3h1.26v1.16c.26-.41.61-.73,1.04-.98.43-.25.92-.37,1.48-.37.61,0,1.12.13,1.51.38.39.25.67.61.83,1.07.66-.97,1.51-1.45,2.56-1.45.82,0,1.46.23,1.9.68.44.46.66,1.16.66,2.11v5.7h-1.4v-5.23c0-.56-.05-.97-.14-1.21-.09-.25-.26-.45-.5-.6-.24-.15-.52-.23-.84-.23-.58,0-1.07.19-1.45.58-.39.39-.58,1.01-.58,1.86v4.82h-1.41v-5.39c0-.62-.11-1.09-.34-1.41-.23-.31-.6-.47-1.12-.47-.4,0-.76.1-1.1.31s-.58.51-.73.91c-.15.4-.23.98-.23,1.73v4.3h-1.41Z"/>
    <path class="cls-130" d="M48.68,18.4V6.94h2.28l2.71,8.11c.25.75.43,1.32.55,1.7.13-.42.33-1.03.61-1.84l2.74-7.97h2.04v11.45h-1.46v-9.59l-3.33,9.59h-1.37l-3.31-9.75v9.75h-1.46Z"/>
    <path class="cls-130" d="M64.36,18.4l4.4-11.45h1.63l4.69,11.45h-1.73l-1.34-3.47h-4.79l-1.26,3.47h-1.61ZM67.67,13.69h3.88l-1.2-3.17c-.36-.96-.64-1.75-.81-2.38-.15.73-.35,1.46-.62,2.19l-1.26,3.36Z"/>
    <path class="cls-130" d="M78.02,18.4v-10.1h-3.77v-1.35h9.08v1.35h-3.79v10.1h-1.52Z"/>
    <path class="cls-130" d="M84.88,18.4V6.94h4.32c.76,0,1.34.04,1.74.11.56.09,1.03.27,1.41.54.38.26.69.63.92,1.11.23.47.35,1,.35,1.56,0,.97-.31,1.8-.93,2.47-.62.67-1.74,1.01-3.36,1.01h-2.94v4.66h-1.52ZM86.39,12.39h2.96c.98,0,1.67-.18,2.09-.55.41-.36.62-.88.62-1.54,0-.48-.12-.89-.36-1.23s-.56-.57-.96-.68c-.26-.07-.73-.1-1.41-.1h-2.93v4.09Z"/>
  </g>
  <g>
    <path class="cls-130" d="M26.78,18.4h-1.41v-8.96c-.34.32-.78.65-1.33.97-.55.32-1.04.57-1.48.73v-1.36c.79-.37,1.47-.82,2.06-1.34.59-.53,1-1.04,1.25-1.53h.91v11.5Z"/>
    <path class="cls-130" d="M35.22,18.4v-8.3h1.26v1.16c.26-.41.61-.73,1.04-.98.43-.25.92-.37,1.48-.37.61,0,1.12.13,1.51.38.39.25.67.61.83,1.07.66-.97,1.51-1.45,2.56-1.45.82,0,1.46.23,1.9.68.44.46.66,1.16.66,2.11v5.7h-1.4v-5.23c0-.56-.05-.97-.14-1.21-.09-.25-.26-.45-.5-.6-.24-.15-.52-.23-.84-.23-.58,0-1.07.19-1.45.58-.39.39-.58,1.01-.58,1.86v4.82h-1.41v-5.39c0-.62-.11-1.09-.34-1.41-.23-.31-.6-.47-1.12-.47-.4,0-.76.1-1.1.31s-.58.51-.73.91c-.15.4-.23.98-.23,1.73v4.3h-1.41Z"/>
    <path class="cls-130" d="M48.68,18.4V6.94h2.28l2.71,8.11c.25.75.43,1.32.55,1.7.13-.42.33-1.03.61-1.84l2.74-7.97h2.04v11.45h-1.46v-9.59l-3.33,9.59h-1.37l-3.31-9.75v9.75h-1.46Z"/>
    <path class="cls-130" d="M64.36,18.4l4.4-11.45h1.63l4.69,11.45h-1.73l-1.34-3.47h-4.79l-1.26,3.47h-1.61ZM67.67,13.69h3.88l-1.2-3.17c-.36-.96-.64-1.75-.81-2.38-.15.73-.35,1.46-.62,2.19l-1.26,3.36Z"/>
    <path class="cls-130" d="M78.02,18.4v-10.1h-3.77v-1.35h9.08v1.35h-3.79v10.1h-1.52Z"/>
    <path class="cls-130" d="M84.88,18.4V6.94h4.32c.76,0,1.34.04,1.74.11.56.09,1.03.27,1.41.54.38.26.69.63.92,1.11.23.47.35,1,.35,1.56,0,.97-.31,1.8-.93,2.47-.62.67-1.74,1.01-3.36,1.01h-2.94v4.66h-1.52ZM86.39,12.39h2.96c.98,0,1.67-.18,2.09-.55.41-.36.62-.88.62-1.54,0-.48-.12-.89-.36-1.23s-.56-.57-.96-.68c-.26-.07-.73-.1-1.41-.1h-2.93v4.09Z"/>
  </g>
</svg>